<svg xmlns="http://www.w3.org/2000/svg" xmlns:xlink="http://www.w3.org/1999/xlink" width="500" zoomAndPan="magnify" viewBox="0 0 375 374.999991" height="500" preserveAspectRatio="xMidYMid meet" version="1.0"><defs><clipPath id="fd37e1dfed"><path d="M 130.773438 147 L 161 147 L 161 188 L 130.773438 188 Z M 130.773438 147 " clip-rule="nonzero"/></clipPath><clipPath id="05009b379e"><path d="M 138 226 L 161 226 L 161 262.5 L 138 262.5 Z M 138 226 " clip-rule="nonzero"/></clipPath><clipPath id="606cfde789"><path d="M 209 112.5 L 238 112.5 L 238 141 L 209 141 Z M 209 112.5 " clip-rule="nonzero"/></clipPath></defs><path fill="#ff7f00" d="M 149.332031 210.871094 C 149.332031 207.695312 149.3125 205.109375 149.347656 202.519531 C 149.359375 201.84375 149.546875 201.164062 149.652344 200.488281 C 149.792969 199.578125 150.542969 198.757812 149.964844 197.730469 C 149.839844 197.515625 150.050781 197.082031 150.167969 196.757812 C 150.667969 195.367188 151.324219 194.019531 151.664062 192.59375 C 152.117188 190.667969 153.0625 189.078125 154.335938 187.625 C 154.746094 187.160156 155.261719 186.867188 155.191406 185.957031 C 155.136719 185.226562 155.714844 184.21875 156.332031 183.699219 C 157.691406 182.539062 158.503906 181.007812 159.519531 179.605469 C 159.875 179.113281 160.222656 178.617188 160.613281 178.152344 C 161.050781 177.625 162.101562 177.679688 161.867188 176.492188 C 161.761719 175.921875 162.769531 175.636719 162.757812 174.769531 C 162.75 173.511719 163.980469 172.828125 164.621094 171.882812 C 165.785156 170.152344 167.503906 168.894531 169.375 167.964844 C 171.003906 167.152344 172.730469 167.4375 174.433594 167.839844 C 175.75 169.375 177.648438 170.363281 178.058594 172.703125 C 178.664062 176.171875 178.714844 179.597656 178.03125 183.039062 C 177.996094 183.210938 177.933594 183.378906 177.921875 183.546875 C 177.613281 188.203125 176.105469 192.574219 174.191406 196.742188 C 173.015625 199.308594 172.207031 202.15625 170.167969 204.289062 C 170.273438 205.867188 168.867188 206.605469 168.207031 207.75 C 167.566406 208.871094 166.632812 209.835938 165.902344 210.914062 C 163.792969 214.039062 160.730469 215.792969 157.265625 216.875 C 154.835938 217.625 152.832031 216.527344 151.226562 214.742188 C 150.097656 213.503906 149.347656 212.039062 149.332031 210.871094 Z M 174.316406 177.617188 C 174.316406 176.671875 174.210938 176.039062 174.335938 175.457031 C 174.648438 174.074219 173.863281 173.15625 173.105469 172.21875 C 172.667969 171.683594 172.101562 171.496094 171.496094 171.933594 C 170.160156 172.898438 168.8125 173.84375 167.558594 174.90625 C 167.148438 175.253906 166.765625 175.804688 167.035156 176.539062 C 167.488281 177.777344 167.34375 178.910156 166.1875 179.757812 C 165.992188 179.898438 165.875 180.175781 165.777344 180.410156 C 165.351562 181.460938 164.773438 182.351562 163.996094 183.226562 C 163.160156 184.171875 162.894531 185.609375 162.074219 186.582031 C 161.246094 187.5625 161.273438 188.953125 160.273438 189.773438 C 159.953125 192.671875 158.28125 195.125 157.578125 197.902344 C 157.195312 199.417969 156.5 200.90625 156.4375 202.421875 C 156.355469 204.449219 156.109375 206.410156 155.617188 208.363281 C 155.332031 209.496094 155.832031 210.390625 156.402344 211.273438 C 156.472656 211.378906 156.863281 211.433594 156.960938 211.351562 C 158.003906 210.433594 159.152344 209.59375 160.027344 208.523438 C 162.820312 205.117188 165.824219 201.871094 167.863281 197.863281 C 168.796875 196.019531 169.703125 194.15625 170.613281 192.300781 C 171.183594 191.128906 171.707031 189.925781 172.101562 188.6875 C 172.519531 187.382812 172.660156 185.992188 173.097656 184.699219 C 173.898438 182.28125 174.386719 179.835938 174.316406 177.617188 Z M 174.316406 177.617188 " fill-opacity="1" fill-rule="nonzero"/><path fill="#ff7f00" d="M 211.28125 160.160156 C 211.171875 160.613281 210.976562 160.9375 211.066406 161.105469 C 212.257812 163.363281 211.378906 165.726562 211.414062 168.027344 C 211.457031 171.210938 210.21875 174.15625 209.070312 177.082031 C 208.882812 177.5625 208.519531 178 208.402344 178.5 C 207.859375 180.773438 206.398438 182.511719 205.125 184.378906 C 204.359375 185.5 203.800781 186.75 202.875 187.804688 C 200.316406 190.695312 197.488281 193.171875 193.953125 194.859375 C 191.351562 196.097656 189.132812 195.359375 187.191406 193.789062 C 185.804688 192.664062 184.664062 191.140625 184.59375 189.125 C 184.546875 187.910156 184.261719 186.6875 184.34375 185.492188 C 184.558594 182.550781 184.886719 179.605469 185.234375 176.671875 C 185.304688 176.039062 185.234375 175.242188 186.078125 174.894531 C 186.222656 174.84375 186.347656 174.40625 186.277344 174.226562 C 186.054688 173.65625 185.804688 173.121094 186.042969 172.480469 C 186.953125 170.050781 186.632812 167.332031 188.058594 164.984375 C 189.625 162.40625 190.871094 159.625 192.304688 156.957031 C 192.792969 156.039062 193.328125 155.109375 194.039062 154.363281 C 194.769531 153.59375 195.339844 152.773438 195.882812 151.863281 C 197.066406 149.867188 198.921875 148.527344 200.886719 147.421875 C 202.117188 146.734375 203.550781 146.496094 204.921875 147.101562 C 206.089844 147.617188 207.398438 148.039062 207.644531 149.589844 C 209.320312 150.804688 209.230469 153.023438 210.460938 154.488281 C 210.511719 154.550781 210.550781 154.648438 210.558594 154.726562 C 210.816406 156.601562 211.058594 158.484375 211.28125 160.160156 Z M 206.605469 157.324219 C 207.023438 157.601562 207.414062 158 207.878906 158.117188 C 208.226562 158.199219 208.722656 158 209.027344 157.761719 C 209.230469 157.601562 209.285156 157.136719 209.25 156.832031 C 209.230469 156.691406 208.855469 156.539062 208.625 156.484375 C 207.734375 156.28125 207.210938 156.929688 206.605469 157.402344 C 206.675781 155.421875 205.765625 153.703125 205.082031 151.9375 C 204.964844 151.640625 204.457031 151.382812 204.101562 151.328125 C 202.339844 151.078125 201.15625 152.148438 200.09375 153.308594 C 197.734375 155.894531 196.078125 158.957031 194.484375 162.03125 C 193.933594 163.113281 193.675781 164.34375 192.5 165.003906 C 192.320312 165.101562 192.160156 165.449219 192.1875 165.65625 C 192.367188 167.054688 191.589844 168.257812 191.394531 169.589844 C 191.199219 170.953125 191.171875 172.40625 190.761719 173.65625 C 190.308594 175.03125 190.21875 176.296875 190.34375 177.660156 C 190.371094 178 190.417969 178.417969 190.265625 178.695312 C 189.542969 179.972656 189.847656 181.371094 189.652344 182.710938 C 189.445312 184.128906 190.058594 185.492188 189.820312 186.847656 C 189.382812 189.273438 191.261719 190.175781 192.632812 191.40625 C 192.792969 191.558594 193.300781 191.433594 193.585938 191.289062 C 193.738281 191.21875 193.871094 190.78125 193.78125 190.621094 C 193.238281 189.558594 193.808594 189.0625 194.644531 188.542969 C 195.296875 188.140625 195.890625 187.605469 196.410156 187.035156 C 198.9375 184.269531 200.835938 181.050781 202.765625 177.867188 C 203.210938 177.136719 203.417969 176.269531 203.78125 175.492188 C 204.191406 174.609375 204.65625 173.871094 205.890625 173.984375 C 206.578125 174.046875 206.828125 173.300781 206.472656 172.640625 C 206.390625 172.488281 206.328125 172.265625 206.203125 172.203125 C 205.304688 171.71875 205.4375 171.097656 205.707031 170.25 C 206.300781 168.332031 206.738281 166.394531 206.871094 164.335938 C 207.003906 161.960938 206.960938 159.652344 206.605469 157.324219 Z M 208.457031 172.15625 C 208.964844 172.066406 209.445312 171.980469 209.925781 171.882812 C 209.996094 171.863281 210.050781 171.773438 210.121094 171.71875 C 210.023438 171.613281 209.898438 171.40625 209.820312 171.417969 C 209.347656 171.515625 208.882812 171.648438 208.421875 171.792969 C 208.375 171.800781 208.339844 171.933594 208.359375 172.003906 C 208.359375 172.078125 208.4375 172.128906 208.457031 172.15625 Z M 208.457031 172.15625 " fill-opacity="1" fill-rule="nonzero"/><g clip-path="url(#fd37e1dfed)"><path fill="#ff7f00" d="M 160.433594 152.398438 C 160.285156 152.925781 160.230469 153.46875 159.988281 153.90625 C 159.617188 154.585938 159.429688 155.164062 160.105469 155.769531 C 160.25 155.894531 160.292969 156.234375 160.257812 156.457031 C 159.75 159.695312 159.125 162.855469 157.460938 165.804688 C 156.367188 167.75 155.503906 169.839844 154.390625 171.800781 C 152.714844 174.761719 150.730469 177.421875 148.335938 179.863281 C 146.554688 181.691406 144.976562 183.71875 143 185.367188 C 140.820312 187.1875 138.441406 188.125 135.582031 187.230469 C 135.171875 187.109375 134.703125 187.144531 134.308594 186.992188 C 133.828125 186.8125 133.1875 186.617188 132.984375 186.234375 C 132.226562 184.824219 130.890625 183.683594 130.917969 181.878906 C 130.945312 180.320312 130.96875 178.777344 131.453125 177.242188 C 132.367188 174.324219 133.507812 171.480469 135.109375 168.910156 C 135.957031 167.554688 137.085938 166.304688 137.890625 164.898438 C 139.554688 161.996094 142.054688 159.804688 144.09375 157.226562 C 144.621094 156.554688 145.367188 156.066406 145.984375 155.460938 C 147.71875 153.765625 149.4375 152.042969 151.175781 150.347656 C 151.734375 149.804688 152.332031 149.296875 152.945312 148.832031 C 153.410156 148.476562 153.808594 148.109375 154.550781 148.625 C 154.898438 148.867188 155.769531 148.394531 156.382812 148.1875 C 156.847656 148.039062 157.132812 147.367188 157.746094 147.691406 C 158.519531 148.089844 159.339844 148.5 159.632812 149.394531 C 159.964844 150.367188 160.175781 151.390625 160.433594 152.398438 Z M 156.320312 154.984375 C 156.152344 154.113281 156.0625 153.328125 155.839844 152.578125 C 155.664062 151.980469 154.859375 151.773438 154.328125 152.132812 C 153.96875 152.371094 153.632812 152.667969 153.300781 152.945312 C 150.1875 155.621094 147.40625 158.582031 145.207031 162.105469 C 144.070312 163.914062 143.019531 165.867188 141.21875 167.199219 C 140.960938 167.386719 140.738281 167.742188 140.675781 168.054688 C 140.285156 169.972656 139.089844 171.53125 138.386719 173.300781 C 137.292969 176.027344 136.117188 178.742188 135.742188 181.691406 C 135.617188 182.65625 136.089844 183.164062 137.097656 183.109375 C 138.539062 183.03125 139.832031 182.550781 140.890625 181.542969 C 141.574219 180.890625 142.242188 180.195312 142.867188 179.480469 C 143.890625 178.304688 144.726562 176.910156 145.929688 175.964844 C 146.777344 175.304688 146.917969 174.148438 147.914062 173.71875 C 149.101562 171.308594 150.578125 169.078125 152.046875 166.851562 C 152.429688 166.277344 152.6875 165.617188 152.980469 164.984375 C 153.464844 163.960938 153.847656 162.878906 154.414062 161.917969 C 155.714844 159.742188 155.503906 157.199219 156.320312 154.984375 Z M 158.40625 149.9375 C 158.191406 150.125 157.941406 150.257812 157.898438 150.4375 C 157.863281 150.570312 158.164062 150.925781 158.226562 150.910156 C 158.476562 150.828125 158.679688 150.640625 158.902344 150.492188 C 158.753906 150.3125 158.601562 150.152344 158.40625 149.9375 Z M 158.40625 149.9375 " fill-opacity="1" fill-rule="nonzero"/></g><path fill="#ff7f00" d="M 192.332031 213.859375 C 192.527344 216.542969 191.949219 218.890625 191.03125 221.171875 C 190.675781 222.054688 190.503906 222.992188 190.273438 223.902344 C 189.304688 227.710938 188.003906 231.378906 185.742188 234.667969 C 184.601562 236.328125 183.320312 237.835938 181.964844 239.308594 C 180.335938 241.089844 177.390625 241.589844 175.324219 240.433594 C 174.878906 240.183594 174.386719 239.859375 174.121094 239.449219 C 172.785156 237.371094 171.699219 235.257812 172.261719 232.589844 C 172.707031 230.46875 172.804688 228.273438 173.140625 226.125 C 173.320312 225.007812 173.621094 223.902344 173.996094 222.839844 C 174.65625 220.949219 175.214844 218.988281 176.179688 217.25 C 177.203125 215.382812 178.617188 213.734375 179.890625 212.003906 C 180.035156 211.808594 180.328125 211.71875 180.53125 211.566406 C 181.171875 211.101562 181.210938 210.539062 180.640625 210.039062 C 179.882812 209.371094 180 208.703125 180.453125 207.960938 C 182.222656 205.136719 184.441406 204.429688 187.371094 205.011719 C 189.304688 205.394531 190.664062 206.875 191.769531 208.488281 C 191.394531 210.40625 193.210938 212.09375 192.332031 213.859375 Z M 186.179688 209.515625 C 184.867188 209.058594 184.65625 209.140625 184.546875 210.113281 C 184.46875 210.878906 184.503906 211.71875 184.210938 212.40625 C 182.890625 215.542969 181.789062 218.746094 180.914062 222.039062 C 180.828125 222.367188 180.765625 222.824219 180.53125 222.976562 C 179.640625 223.574219 179.730469 224.332031 179.890625 225.222656 C 180.015625 225.902344 180.023438 226.625 179.925781 227.308594 C 179.660156 229.203125 179.304688 231.074219 179.019531 232.957031 C 178.984375 233.179688 179.0625 233.546875 179.214844 233.644531 C 179.367188 233.742188 179.792969 233.660156 179.898438 233.507812 C 180.96875 232.046875 182.394531 230.761719 182.828125 228.941406 C 183.167969 227.542969 183.890625 226.390625 184.59375 225.1875 C 185.179688 224.171875 185.867188 223.054688 185.945312 221.949219 C 186.035156 220.664062 186.292969 219.503906 187.066406 218.578125 C 187.574219 217.972656 187.628906 217.355469 187.734375 216.695312 C 187.878906 215.839844 187.886719 214.945312 188.074219 214.101562 C 188.527344 212.058594 187.921875 210.503906 186.117188 209.433594 C 186.445312 209.433594 186.765625 209.453125 187.085938 209.40625 C 187.15625 209.398438 187.253906 209.113281 187.21875 208.980469 C 187.121094 208.535156 186.84375 208.765625 186.675781 208.90625 C 186.488281 209.09375 186.347656 209.320312 186.179688 209.515625 Z M 180.808594 239.386719 C 180.210938 239.03125 179.820312 238.640625 179.394531 238.601562 C 178.921875 238.558594 178.699219 239.039062 178.761719 239.53125 C 178.832031 240.101562 179.394531 240.601562 179.800781 240.386719 C 180.148438 240.21875 180.382812 239.835938 180.808594 239.386719 Z M 177.023438 231.199219 C 176.820312 231.003906 176.703125 230.894531 176.585938 230.789062 C 176.453125 230.976562 176.320312 231.15625 176.179688 231.34375 C 176.3125 231.429688 176.472656 231.617188 176.5625 231.582031 C 176.738281 231.53125 176.871094 231.34375 177.023438 231.199219 Z M 177.023438 231.199219 " fill-opacity="1" fill-rule="nonzero"/><path fill="#ff7f00" d="M 241.875 158.796875 C 241.792969 159.652344 241.792969 160.535156 241.617188 161.375 C 241.457031 162.132812 240.976562 162.835938 240.886719 163.585938 C 240.789062 164.449219 239.78125 164.824219 239.976562 165.90625 C 240.09375 166.546875 239.433594 167.324219 239.132812 168.035156 C 238.925781 168.507812 238.792969 169.035156 238.0625 168.945312 C 237.914062 168.929688 237.546875 169.277344 237.574219 169.367188 C 238.125 171.078125 236.851562 172.210938 236.042969 173.273438 C 234.304688 175.546875 232.25 177.570312 230.308594 179.6875 C 230.140625 179.863281 229.890625 180.007812 229.648438 180.070312 C 229.507812 180.105469 229.3125 179.960938 229.140625 179.898438 C 229.273438 179.792969 229.480469 179.710938 229.523438 179.578125 C 229.695312 179.097656 229.300781 179.027344 228.980469 178.917969 C 228.25 178.667969 228.324219 178.25 228.722656 177.742188 C 229.417969 176.867188 230.238281 176.109375 230.949219 175.234375 C 233.058594 172.648438 234.421875 169.613281 236.238281 166.859375 C 237.289062 165.269531 237.984375 163.503906 238.421875 161.621094 C 238.964844 159.25 239.683594 156.921875 240.34375 154.574219 C 240.378906 154.449219 240.566406 154.246094 240.621094 154.265625 C 241.804688 154.65625 241.589844 154.03125 241.207031 153.417969 C 240.867188 152.871094 240.769531 152.382812 240.832031 151.710938 C 240.949219 150.429688 240.921875 149.109375 240.804688 147.816406 C 240.699219 146.546875 239.890625 146.003906 238.625 146.164062 C 238.285156 146.207031 237.914062 146.269531 237.628906 146.441406 C 235.613281 147.652344 233.621094 148.886719 231.636719 150.144531 C 231.359375 150.320312 231.171875 150.652344 230.96875 150.917969 C 230.289062 151.8125 229.570312 152.683594 228.964844 153.628906 C 228.019531 155.074219 227.050781 156.519531 226.292969 158.074219 C 225.660156 159.382812 225.125 160.800781 224.894531 162.238281 C 224.652344 163.726562 224.261719 165.09375 223.476562 166.367188 C 223.328125 166.617188 223.453125 167.039062 223.460938 167.375 C 223.476562 168.242188 223.65625 169.132812 223.503906 169.972656 C 223.078125 172.253906 222.597656 174.539062 221.972656 176.777344 C 221.761719 177.554688 221.574219 178.25 221.777344 179.027344 C 222 179.882812 222.863281 180.871094 223.53125 180.640625 C 224.527344 180.292969 225.695312 181.113281 226.566406 180.070312 C 226.738281 179.863281 227.414062 179.722656 227.609375 180.347656 C 227.761719 180.835938 228.011719 181.363281 227.316406 181.683594 C 226.390625 182.113281 225.480469 182.601562 224.519531 182.941406 C 223.886719 183.164062 223.121094 183.371094 222.515625 183.210938 C 221.003906 182.816406 219.558594 182.140625 218.472656 180.945312 C 218.144531 180.570312 217.726562 180 217.796875 179.597656 C 217.976562 178.578125 217.378906 177.777344 217.296875 176.867188 C 217.21875 175.957031 217.609375 174.96875 217.40625 174.109375 C 217.175781 173.164062 217.34375 172.425781 217.679688 171.59375 C 217.84375 171.203125 217.878906 170.75 217.921875 170.320312 C 218.4375 165.324219 220.273438 160.703125 222.042969 156.074219 C 222.988281 153.621094 224.707031 151.605469 226.230469 149.507812 C 227.136719 148.261719 228.296875 147.191406 229.335938 146.039062 C 230.71875 144.515625 232.535156 143.585938 234.351562 142.800781 C 235.667969 142.230469 237.210938 142.132812 238.660156 141.917969 C 239.015625 141.863281 239.460938 142.160156 239.816406 142.363281 C 240.101562 142.535156 240.300781 142.933594 240.582031 143.015625 C 241.234375 143.183594 242.132812 142.925781 242.375 143.765625 C 242.730469 145.003906 243.921875 145.851562 243.851562 147.289062 C 243.683594 150.5 243.335938 153.683594 242.488281 156.796875 C 242.355469 157.289062 242.027344 157.734375 241.792969 158.199219 C 241.625 158.394531 241.449219 158.589844 241.277344 158.777344 C 241.484375 158.796875 241.679688 158.796875 241.875 158.796875 Z M 240.308594 144.691406 C 240.226562 144.453125 240.183594 144.308594 240.128906 144.15625 C 239.941406 144.246094 239.738281 144.308594 239.59375 144.441406 C 239.550781 144.488281 239.683594 144.84375 239.738281 144.84375 C 239.925781 144.84375 240.113281 144.746094 240.308594 144.691406 Z M 240.308594 144.691406 " fill-opacity="1" fill-rule="nonzero"/><path fill="#ff7f00" d="M 169.632812 145.289062 C 169.855469 144.578125 170.167969 143.621094 170.433594 142.660156 C 170.800781 141.339844 171.011719 139.972656 171.503906 138.707031 C 172.125 137.101562 172.867188 135.601562 174.273438 134.390625 C 175.464844 133.355469 176.230469 131.828125 177.167969 130.519531 C 178.886719 128.101562 180.683594 125.773438 183.300781 124.246094 C 185.019531 123.25 186.800781 122.679688 188.707031 123.703125 C 189.8125 124.300781 191.15625 124.550781 191.789062 125.871094 C 192.480469 127.335938 192.6875 128.867188 192.542969 130.457031 C 192.429688 131.75 192.269531 133.050781 192.019531 134.320312 C 191.734375 135.753906 191.519531 137.246094 189.996094 138.054688 C 189.230469 138.464844 189.828125 138.625 190.195312 138.867188 C 190.335938 138.957031 190.417969 139.304688 190.371094 139.492188 C 190.238281 140.070312 190.113281 140.679688 189.847656 141.203125 C 188.394531 144.058594 187.085938 147.011719 184.804688 149.367188 C 183.84375 150.355469 182.855469 151.347656 182.074219 152.472656 C 180.753906 154.378906 178.699219 154.773438 176.730469 155.371094 C 176.347656 155.484375 175.820312 155.433594 175.449219 155.273438 C 173.550781 154.441406 171.566406 153.691406 170.71875 151.507812 C 170.59375 151.195312 170.222656 150.953125 170.183594 150.652344 C 169.960938 148.972656 169.828125 147.28125 169.632812 145.289062 Z M 188.109375 130.859375 C 188.074219 128.503906 187.203125 127.921875 185.546875 128.554688 C 184.976562 128.769531 184.433594 129.046875 183.855469 129.234375 C 183.125 129.476562 182.605469 129.886719 182.570312 130.6875 C 182.527344 131.5625 182 132.132812 181.414062 132.652344 C 178.519531 135.191406 176.882812 138.503906 175.8125 142.105469 C 175.242188 144.015625 174.96875 146.011719 174.460938 147.949219 C 174.300781 148.574219 174.523438 148.972656 174.796875 149.382812 C 175.5 150.453125 176.339844 150.6875 177.46875 150.070312 C 178.058594 149.75 178.601562 149.277344 179.0625 148.785156 C 180.167969 147.617188 180.941406 146.207031 181.824219 144.878906 C 183.59375 142.203125 185.394531 139.527344 186.542969 136.523438 C 187.300781 134.515625 187.699219 132.375 188.109375 130.859375 Z M 188.109375 130.859375 " fill-opacity="1" fill-rule="nonzero"/><g clip-path="url(#05009b379e)"><path fill="#ff7f00" d="M 160.273438 238.085938 C 160.1875 242.929688 159.039062 246.933594 157.203125 250.726562 C 156.8125 251.527344 155.804688 252.011719 155.34375 252.796875 C 154.921875 253.507812 155.046875 254.550781 154.601562 255.230469 C 153.167969 257.414062 151.351562 259.351562 149.296875 260.894531 C 145.128906 264.015625 141.15625 262.339844 139.144531 257.871094 C 138.324219 256.050781 138.582031 254.125 138.734375 252.242188 C 138.796875 251.554688 139.632812 250.949219 139.75 250.242188 C 139.867188 249.53125 139.332031 248.710938 139.429688 247.988281 C 139.625 246.523438 139.855469 245.007812 140.425781 243.660156 C 141.699219 240.628906 142.671875 237.480469 144.539062 234.679688 C 145.714844 232.910156 147.105469 231.261719 147.96875 229.265625 C 148.691406 227.578125 150.167969 226.613281 151.921875 226.167969 C 152.394531 226.042969 152.957031 226.105469 153.445312 226.238281 C 154.023438 226.390625 154.140625 226.925781 154.183594 227.488281 C 154.246094 228.21875 154.664062 228.65625 155.414062 228.355469 C 156 228.121094 156.542969 227.820312 157.121094 228.253906 C 157.886719 228.828125 158.652344 229.398438 158.761719 230.46875 C 158.789062 230.796875 158.789062 231.207031 158.984375 231.421875 C 159.945312 232.492188 159.980469 233.742188 159.972656 235.078125 C 159.964844 236.285156 160.203125 237.480469 160.273438 238.085938 Z M 156.945312 235.8125 C 156.660156 235.5 156.3125 235.214844 156.109375 234.855469 C 155.761719 234.257812 155.589844 233.546875 155.207031 232.992188 C 154.070312 231.359375 152.546875 231.207031 151.039062 232.511719 C 149.820312 233.5625 147.851562 236.507812 147.257812 238.140625 C 146.480469 240.234375 145.527344 242.285156 144.960938 244.445312 C 144.523438 246.097656 143.898438 247.765625 144.058594 249.53125 C 144.175781 250.769531 144.085938 251.957031 143.648438 253.125 C 143.230469 254.238281 143.355469 255.355469 143.710938 256.460938 C 144.140625 257.78125 144.675781 258.128906 146.0625 257.789062 C 146.625 257.65625 147.238281 257.378906 147.65625 256.996094 C 150.855469 254.007812 153.347656 250.519531 154.878906 246.382812 C 155.261719 245.335938 155.8125 244.3125 155.972656 243.222656 C 156.277344 241.253906 156.332031 239.253906 156.527344 237.265625 C 156.578125 236.757812 156.777344 236.265625 156.910156 235.757812 L 157.578125 235.835938 C 157.542969 235.722656 157.503906 235.597656 157.480469 235.480469 C 157.292969 235.578125 157.121094 235.695312 156.945312 235.8125 Z M 156.945312 235.8125 " fill-opacity="1" fill-rule="nonzero"/></g><g clip-path="url(#606cfde789)"><path fill="#ff7f00" d="M 209.808594 133.445312 C 209.90625 132.757812 209.890625 132.125 210.085938 131.570312 C 210.550781 130.261719 211.03125 128.949219 211.652344 127.71875 C 212.320312 126.40625 213.015625 125.070312 213.949219 123.953125 C 216.222656 121.234375 218.289062 118.289062 221.511719 116.539062 C 221.804688 116.378906 222.082031 116.121094 222.285156 115.84375 C 223.566406 114.160156 225.429688 113.425781 227.316406 112.75 C 227.699219 112.617188 228.199219 112.527344 228.554688 112.652344 C 229.089844 112.839844 229.496094 112.679688 230.003906 112.597656 C 234.75 111.832031 237.457031 115.613281 237.191406 119.019531 C 236.933594 122.390625 235.5 125.21875 233.699219 127.894531 C 232.355469 129.902344 230.878906 131.875 229.175781 133.570312 C 226.542969 136.191406 223.789062 138.734375 220.191406 140.117188 C 218.429688 140.792969 216.632812 140.867188 214.859375 140.707031 C 212.632812 140.5 211.402344 138.796875 210.566406 136.941406 C 210.105469 135.851562 210.050781 134.585938 209.808594 133.445312 Z M 232.730469 119.144531 C 232.578125 118.71875 232.464844 118.121094 232.179688 117.609375 C 231.324219 116.105469 230.746094 115.925781 229.230469 116.648438 C 228.222656 117.128906 227.164062 117.558594 226.496094 118.546875 C 225.714844 119.707031 223.949219 118.023438 223.53125 119.378906 C 223.203125 120.457031 223.132812 121.535156 222.167969 122.304688 C 219.820312 124.175781 218.570312 126.933594 216.730469 129.214844 C 216.363281 129.664062 216.257812 130.324219 216.0625 130.894531 C 215.742188 131.875 215.5 132.890625 215.125 133.855469 C 214.851562 134.566406 214.796875 135.21875 215.257812 135.824219 C 215.714844 136.414062 217.539062 137.058594 218.054688 136.78125 C 219.425781 136.039062 220.90625 135.414062 222.105469 134.453125 C 226.710938 130.75 230.128906 126.121094 232.292969 120.589844 C 232.453125 120.179688 232.550781 119.753906 232.730469 119.144531 Z M 235.355469 123.277344 C 235.046875 123.027344 234.804688 122.839844 234.554688 122.660156 C 234.546875 122.652344 234.386719 122.800781 234.402344 122.828125 C 234.527344 123.042969 234.652344 123.265625 234.8125 123.445312 C 234.859375 123.488281 235.0625 123.375 235.355469 123.277344 Z M 214.859375 129.296875 C 215.089844 129.1875 215.242188 129.128906 215.394531 129.054688 C 215.242188 128.867188 215.125 128.652344 214.9375 128.519531 C 214.875 128.476562 214.664062 128.628906 214.519531 128.691406 C 214.636719 128.886719 214.742188 129.089844 214.859375 129.296875 Z M 214.859375 129.296875 " fill-opacity="1" fill-rule="nonzero"/></g></svg>