<svg xmlns="http://www.w3.org/2000/svg" xmlns:xlink="http://www.w3.org/1999/xlink" width="500" zoomAndPan="magnify" viewBox="0 0 375 374.999991" height="500" preserveAspectRatio="xMidYMid meet" version="1.0"><defs><clipPath id="7c4e5484b5"><path d="M 14.550781 161 L 360.300781 161 L 360.300781 215 L 14.550781 215 Z M 14.550781 161 " clip-rule="nonzero"/></clipPath></defs><g clip-path="url(#7c4e5484b5)"><path fill="#f19820" d="M 360.300781 208.996094 C 359.777344 180.808594 343.585938 163.589844 322.691406 161.957031 C 301.796875 160.320312 292.683594 165.398438 282.992188 178.882812 C 277.941406 185.882812 274.808594 194.230469 272.890625 200.59375 C 271.035156 194.171875 267.84375 185.882812 262.792969 178.882812 C 253.101562 165.398438 243.929688 161.488281 223.09375 163.121094 C 206.320312 164.464844 192.214844 176.195312 187.050781 195.339844 C 181.070312 178.648438 167.78125 168.492188 152.28125 167.265625 C 131.386719 165.632812 122.277344 169.542969 112.582031 183.023438 C 108.289062 189.035156 105.328125 196.039062 103.355469 201.933594 C 98.710938 181.332031 84.144531 168.667969 66.671875 167.265625 C 45.777344 165.632812 36.605469 169.542969 26.972656 183.023438 C 17.335938 196.507812 14.550781 214.949219 14.550781 214.949219 L 18.382812 214.949219 C 18.382812 214.949219 25.230469 196.566406 30.804688 186.117188 C 36.375 175.671875 46.359375 175.085938 54.019531 173.863281 C 61.679688 172.636719 69.804688 175.671875 83.503906 181.214844 C 97.203125 186.761719 99.8125 214.949219 99.8125 214.949219 L 104.921875 214.949219 C 104.921875 214.191406 104.863281 213.433594 104.863281 212.675781 C 106.894531 207.421875 112.058594 194.347656 116.472656 186.117188 C 122.042969 175.671875 132.027344 175.085938 139.628906 173.863281 C 147.234375 172.636719 152.457031 175.671875 166.210938 181.214844 C 179.96875 186.761719 182.523438 214.949219 182.523438 214.949219 L 190.53125 214.949219 C 190.472656 213.140625 190.414062 211.390625 190.242188 209.699219 C 190.9375 204.792969 194.363281 184.835938 206.375 179.988281 C 220.132812 174.445312 228.257812 171.410156 235.917969 172.636719 C 243.582031 173.863281 253.507812 171.527344 259.078125 181.972656 C 264.648438 192.421875 269.816406 210.804688 269.816406 210.804688 L 275.621094 210.804688 C 275.621094 210.804688 281.308594 192.421875 286.9375 181.972656 C 292.566406 171.527344 302.492188 170.945312 310.097656 169.71875 C 317.699219 168.492188 325.882812 171.527344 339.640625 177.070312 C 353.394531 182.617188 352.351562 210.746094 352.351562 210.746094 Z M 360.300781 208.996094 " fill-opacity="1" fill-rule="nonzero"/></g></svg>