<svg xmlns="http://www.w3.org/2000/svg" xmlns:xlink="http://www.w3.org/1999/xlink" width="500" zoomAndPan="magnify" viewBox="0 0 375 374.999991" height="500" preserveAspectRatio="xMidYMid meet" version="1.0"><defs><clipPath id="6317328b0e"><path d="M 68 19.035156 L 306 19.035156 L 306 355.785156 L 68 355.785156 Z M 68 19.035156 " clip-rule="nonzero"/></clipPath></defs><g clip-path="url(#6317328b0e)"><path fill="#ef90ac" d="M 300.960938 141.03125 C 296.703125 131.796875 288.816406 123.804688 281.15625 117.347656 C 272.640625 110.09375 263.164062 104.425781 252.664062 100.574219 C 242.617188 96.835938 232.003906 95.246094 221.394531 95.359375 C 222.472656 89.976562 223.664062 84.59375 225.195312 79.269531 C 228.148438 68.84375 231.664062 60.230469 237 50.878906 C 241.257812 43.402344 246.421875 37.566406 252.835938 31.898438 C 249.542969 27.648438 246.308594 23.398438 243.1875 19.035156 C 242.960938 19.207031 242.730469 19.375 242.5625 19.546875 C 233.480469 27.136719 226.5 36.148438 220.996094 46.574219 C 215.433594 57.113281 211.289062 68.332031 208.394531 79.835938 C 206.976562 85.445312 205.730469 91.113281 204.878906 96.835938 C 199.828125 97.742188 194.832031 98.929688 190.007812 100.515625 C 170.199219 106.863281 152.378906 118.140625 141.085938 135.933594 C 133.539062 147.886719 129.566406 161.65625 127.976562 175.652344 C 122.128906 176.785156 116.34375 178.769531 110.835938 181.601562 C 92.222656 191.292969 79.28125 209.59375 73.265625 229.3125 C 67.363281 248.636719 67.589844 269.65625 71.621094 289.320312 C 75.648438 308.925781 83.085938 328.871094 93.925781 345.699219 C 96.195312 349.210938 98.632812 352.613281 101.359375 355.785156 C 105.898438 352.894531 110.554688 350.121094 115.148438 347.230469 C 114.753906 346.777344 114.355469 346.324219 113.957031 345.871094 C 111.347656 342.867188 109.132812 339.75 106.523438 335.5 C 104.027344 331.476562 101.8125 327.285156 99.769531 322.976562 C 99.316406 321.957031 98.804688 320.9375 98.351562 319.917969 C 98.292969 319.746094 97.5 317.933594 97.386719 317.765625 C 96.421875 315.554688 95.570312 313.289062 94.71875 311.023438 C 91.597656 302.691406 88.988281 294.136719 87.171875 285.410156 C 86.773438 283.425781 86.375 281.386719 86.035156 279.347656 C 85.980469 279.121094 85.695312 277.136719 85.695312 277.195312 C 85.523438 276.058594 85.410156 274.925781 85.296875 273.792969 C 84.84375 269.375 84.671875 264.953125 84.671875 260.535156 C 84.671875 258.324219 84.785156 256.113281 84.898438 253.90625 C 84.957031 252.886719 85.070312 251.808594 85.128906 250.789062 C 85.183594 250.164062 85.242188 249.484375 85.355469 248.863281 C 85.355469 248.75 85.46875 247.957031 85.523438 247.558594 C 85.582031 247.277344 85.636719 246.820312 85.636719 246.707031 C 85.695312 246.199219 85.808594 245.6875 85.863281 245.179688 C 86.035156 244.046875 86.261719 242.914062 86.488281 241.722656 C 86.945312 239.457031 87.511719 237.1875 88.136719 234.980469 C 88.703125 232.996094 89.328125 231.070312 90.007812 229.144531 C 90.347656 228.179688 90.6875 227.273438 91.085938 226.367188 C 91.144531 226.253906 91.199219 226.140625 91.199219 226.082031 C 91.539062 225.402344 91.824219 224.667969 92.164062 223.988281 C 94.039062 220.078125 96.25 216.28125 98.75 212.710938 C 98.976562 212.425781 99.144531 212.144531 99.371094 211.859375 C 99.484375 211.691406 99.941406 211.125 100.054688 210.953125 C 100.734375 210.160156 101.359375 209.367188 102.097656 208.574219 C 103.6875 206.816406 105.332031 205.117188 107.089844 203.53125 C 110.667969 200.300781 113.21875 198.320312 117.929688 195.769531 C 118.894531 195.257812 119.917969 194.75 120.9375 194.238281 C 120.996094 194.183594 121.449219 194.011719 121.621094 193.898438 C 122.015625 193.730469 122.472656 193.558594 122.867188 193.390625 C 124.175781 192.878906 125.480469 192.480469 126.785156 192.085938 C 126.785156 209.652344 129.226562 227.785156 135.183594 244.328125 C 141.425781 261.609375 151.8125 278.042969 168.214844 287.222656 C 176.898438 292.097656 186.714844 294.703125 196.589844 295.210938 C 203.6875 295.550781 211.519531 294.304688 217.421875 290.167969 C 228.996094 282.066406 231.269531 267.503906 229.566406 254.359375 C 227.75 240.363281 222.8125 226.535156 215.433594 214.523438 C 206.296875 199.679688 191.257812 188.628906 175.421875 181.773438 C 165.378906 177.410156 154.652344 174.691406 143.925781 174.292969 C 143.925781 174.238281 143.925781 174.238281 143.925781 174.179688 C 144.09375 173.214844 144.207031 172.253906 144.378906 171.289062 C 144.777344 169.195312 145.230469 167.039062 145.738281 164.945312 C 146.703125 160.976562 148.011719 157.125 149.542969 153.328125 C 149.542969 153.269531 149.542969 153.269531 149.597656 153.214844 C 149.828125 152.703125 150.054688 152.136719 150.335938 151.628906 C 150.734375 150.777344 151.132812 149.984375 151.585938 149.132812 C 152.550781 147.265625 153.570312 145.507812 154.707031 143.75 C 155.617188 142.335938 156.582031 140.917969 157.601562 139.613281 C 157.714844 139.5 158.566406 138.367188 158.792969 138.085938 C 159.53125 137.179688 160.324219 136.328125 161.121094 135.421875 C 162.425781 134.003906 163.789062 132.703125 165.207031 131.398438 C 166 130.664062 166.851562 129.925781 167.703125 129.246094 C 168.101562 128.90625 168.441406 128.621094 168.839844 128.339844 C 168.894531 128.28125 168.953125 128.226562 168.953125 128.226562 C 169.007812 128.167969 169.121094 128.113281 169.234375 128 C 179.507812 120.746094 191.199219 115.703125 203.230469 113.097656 C 203.0625 146.527344 216.964844 185.683594 249.882812 199.054688 C 258.394531 202.511719 267.929688 203.816406 276.953125 201.71875 C 285.242188 199.792969 292.277344 194.75 297.328125 188.003906 C 307.828125 174.691406 307.886719 155.933594 300.960938 141.03125 Z M 146.363281 190.441406 C 146.933594 190.5 147.441406 190.554688 148.011719 190.613281 C 148.125 190.613281 148.691406 190.667969 148.976562 190.726562 C 149.316406 190.78125 149.828125 190.839844 149.941406 190.839844 C 150.507812 190.953125 151.019531 191.007812 151.585938 191.121094 C 152.949219 191.347656 154.308594 191.632812 155.671875 191.972656 C 158 192.539062 160.269531 193.160156 162.484375 193.898438 C 163.5625 194.238281 164.582031 194.636719 165.660156 195.03125 C 167.136719 195.597656 167.703125 195.824219 168.386719 196.109375 C 172.753906 198.035156 176.953125 200.300781 180.984375 202.851562 C 185.296875 205.570312 187.851562 207.496094 191.257812 210.5 C 193.8125 212.765625 196.195312 215.089844 198.351562 217.699219 C 198.351562 217.699219 198.40625 217.753906 198.40625 217.753906 C 198.804688 218.265625 199.144531 218.773438 199.542969 219.285156 C 200.335938 220.417969 201.074219 221.605469 201.8125 222.742188 C 203.289062 225.175781 204.652344 227.671875 205.898438 230.21875 C 206.523438 231.464844 207.089844 232.769531 207.660156 234.015625 C 207.601562 233.847656 207.714844 234.128906 207.828125 234.414062 C 207.886719 234.582031 208 234.808594 208.054688 234.980469 C 207.941406 234.753906 207.886719 234.640625 207.828125 234.46875 C 207.886719 234.582031 207.941406 234.695312 207.941406 234.808594 C 208.226562 235.546875 208.566406 236.339844 208.851562 237.074219 C 211.121094 243.027344 212.597656 249.03125 213.789062 255.265625 C 213.789062 255.320312 213.789062 255.378906 213.789062 255.378906 C 213.789062 255.492188 213.789062 255.546875 213.84375 255.660156 C 213.902344 256.339844 214.015625 257.023438 214.070312 257.703125 C 214.183594 259.175781 214.242188 260.703125 214.242188 262.179688 C 214.242188 263.425781 214.183594 264.726562 214.070312 265.972656 C 214.070312 266.144531 214.015625 266.3125 214.015625 266.484375 C 213.84375 267.050781 213.789062 267.730469 213.675781 268.355469 C 213.390625 269.542969 212.992188 270.734375 212.652344 271.867188 C 212.652344 271.925781 212.652344 271.925781 212.652344 271.925781 C 212.652344 271.980469 212.597656 271.980469 212.597656 272.039062 C 212.3125 272.605469 212.027344 273.113281 211.6875 273.679688 C 211.460938 274.078125 211.121094 274.472656 210.894531 274.871094 C 210.835938 274.984375 210.722656 275.039062 210.667969 275.152344 C 210.324219 275.550781 209.871094 275.890625 209.53125 276.289062 C 209.472656 276.34375 209.417969 276.402344 209.359375 276.457031 C 209.304688 276.457031 209.304688 276.515625 209.246094 276.515625 C 208.625 276.910156 206.976562 278.269531 206.238281 278.15625 C 206.410156 278.15625 208 277.589844 206.921875 277.875 C 206.636719 277.929688 206.351562 278.101562 206.070312 278.15625 C 205.273438 278.382812 204.535156 278.609375 203.742188 278.78125 C 202.835938 279.007812 201.585938 279.0625 203.34375 278.894531 C 202.605469 278.949219 201.871094 279.0625 201.132812 279.0625 C 199.316406 279.175781 197.5 279.121094 195.683594 279.007812 C 195.171875 278.949219 194.71875 278.894531 194.207031 278.894531 C 194.039062 278.894531 193.867188 278.894531 193.753906 278.835938 C 193.695312 278.835938 193.640625 278.835938 193.582031 278.835938 C 192.5625 278.667969 191.539062 278.496094 190.519531 278.328125 C 188.304688 277.875 186.148438 277.308594 184.050781 276.628906 C 183.027344 276.289062 182.003906 275.890625 180.984375 275.550781 C 180.984375 275.550781 180.925781 275.550781 180.925781 275.550781 C 180.53125 275.378906 180.074219 275.152344 179.679688 274.984375 C 177.804688 274.078125 175.988281 273.113281 174.230469 271.980469 C 173.4375 271.472656 172.699219 271.015625 171.960938 270.449219 C 171.621094 270.222656 171.28125 269.996094 170.996094 269.714844 C 170.9375 269.714844 170.9375 269.65625 170.9375 269.65625 C 169.40625 268.355469 167.875 267.050781 166.398438 265.578125 C 165.148438 264.273438 163.902344 262.972656 162.765625 261.613281 C 162.425781 261.214844 162.085938 260.816406 161.800781 260.421875 C 161.800781 260.363281 161.746094 260.363281 161.746094 260.308594 C 161.121094 259.457031 160.554688 258.664062 159.984375 257.816406 C 157.714844 254.472656 155.730469 250.957031 154.027344 247.277344 C 153.570312 246.3125 153.117188 245.347656 152.722656 244.386719 C 152.722656 244.386719 152.722656 244.386719 152.722656 244.328125 C 152.550781 243.875 152.378906 243.480469 152.210938 243.027344 C 151.414062 241.042969 150.734375 239.058594 150.054688 237.019531 C 147.613281 229.539062 145.96875 221.832031 144.777344 214.015625 C 144.777344 213.902344 144.492188 212.03125 144.492188 211.746094 C 144.378906 210.839844 144.265625 209.933594 144.207031 208.972656 C 143.980469 206.648438 143.8125 204.324219 143.640625 202 C 143.414062 198.035156 143.300781 194.070312 143.300781 190.101562 C 144.265625 190.328125 145.34375 190.386719 146.363281 190.441406 Z M 289.609375 165.964844 C 289.609375 166.019531 289.554688 166.472656 289.496094 166.8125 C 289.496094 166.925781 289.441406 166.984375 289.441406 167.039062 C 289.269531 167.777344 289.15625 168.570312 288.988281 169.308594 C 288.589844 170.894531 287.964844 172.421875 287.511719 174.011719 C 287.339844 174.351562 287.171875 174.746094 287 175.085938 C 286.660156 175.765625 286.320312 176.390625 285.921875 177.011719 C 285.523438 177.636719 285.128906 178.257812 284.730469 178.882812 C 284.558594 179.167969 284.277344 179.449219 284.105469 179.789062 C 284.21875 179.5625 284.332031 179.394531 284.445312 179.28125 C 284.332031 179.507812 284.164062 179.734375 283.992188 179.847656 C 283.027344 180.921875 281.949219 181.886719 280.871094 182.90625 C 280.871094 182.90625 280.8125 182.960938 280.8125 182.960938 C 280.644531 183.074219 280.53125 183.1875 280.359375 183.300781 C 279.566406 183.8125 278.828125 184.324219 278.03125 184.71875 C 277.351562 185.058594 276.671875 185.34375 276.046875 185.683594 C 277.976562 184.71875 275.59375 185.796875 275.023438 185.964844 C 274.289062 186.191406 273.550781 186.417969 272.753906 186.53125 C 272.359375 186.589844 271.960938 186.644531 271.5625 186.757812 C 271.5625 186.757812 271.5625 186.757812 271.507812 186.757812 C 269.691406 186.871094 267.929688 186.984375 266.113281 186.871094 C 265.605469 186.816406 265.09375 186.816406 264.582031 186.757812 C 264.582031 186.757812 264.527344 186.757812 264.527344 186.757812 C 263.449219 186.53125 262.367188 186.363281 261.289062 186.078125 C 259.417969 185.625 257.542969 185.003906 255.671875 184.324219 C 255.386719 184.210938 255.046875 184.097656 254.765625 183.984375 C 254.707031 183.925781 254.59375 183.925781 254.535156 183.871094 C 253.570312 183.359375 252.550781 182.90625 251.585938 182.394531 C 250.054688 181.546875 248.578125 180.640625 247.160156 179.675781 C 246.875 179.449219 245.683594 178.597656 245.683594 178.597656 C 245.003906 178.03125 244.320312 177.464844 243.640625 176.898438 C 242.277344 175.652344 240.917969 174.351562 239.667969 172.988281 C 239.042969 172.367188 238.476562 171.6875 237.90625 171.007812 C 237.625 170.667969 237.339844 170.328125 237.058594 169.988281 C 236.886719 169.816406 236.773438 169.589844 236.601562 169.421875 C 234.332031 166.359375 232.289062 163.1875 230.53125 159.84375 C 229.621094 158.144531 228.769531 156.386719 227.917969 154.632812 C 227.75 154.234375 227.523438 153.78125 227.351562 153.382812 C 226.898438 152.308594 226.5 151.230469 226.101562 150.15625 C 224.742188 146.414062 223.605469 142.617188 222.640625 138.765625 C 222.1875 136.839844 221.734375 134.914062 221.394531 132.929688 C 221.222656 132.023438 221.050781 131.117188 220.882812 130.210938 C 220.824219 129.753906 220.710938 129.300781 220.65625 128.847656 C 220.65625 128.679688 220.542969 127.886719 220.429688 127.433594 C 220.371094 126.921875 220.199219 125.734375 220.199219 125.507812 C 220.085938 124.597656 220.03125 123.691406 219.917969 122.785156 C 219.746094 120.746094 219.632812 118.707031 219.578125 116.722656 C 219.519531 114.964844 219.519531 113.210938 219.578125 111.511719 C 220.144531 111.511719 220.710938 111.453125 221.335938 111.453125 C 238.988281 111.226562 256.238281 117.347656 269.746094 128.792969 C 273.777344 132.191406 277.464844 135.933594 280.925781 139.957031 C 281.324219 140.410156 281.722656 140.917969 282.121094 141.371094 C 282.289062 141.597656 282.914062 142.335938 283.027344 142.449219 C 283.367188 142.957031 283.765625 143.46875 284.105469 143.976562 C 285.183594 145.566406 286.09375 147.207031 286.886719 148.964844 C 287 149.246094 287.113281 149.476562 287.226562 149.757812 C 287.226562 149.816406 287.285156 149.871094 287.285156 149.929688 C 287.566406 150.722656 287.851562 151.457031 288.078125 152.25 C 288.644531 154.007812 288.988281 155.765625 289.382812 157.578125 C 289.382812 157.632812 289.382812 157.691406 289.441406 157.746094 C 289.441406 157.972656 289.496094 158.199219 289.496094 158.425781 C 289.609375 159.335938 289.667969 160.183594 289.667969 161.089844 C 289.835938 162.621094 289.78125 164.320312 289.609375 165.964844 Z M 289.609375 165.964844 " fill-opacity="1" fill-rule="nonzero"/></g><path fill="#ef90ac" d="M 284.445312 179.222656 C 284.671875 178.882812 284.785156 178.65625 284.445312 179.222656 Z M 284.445312 179.222656 " fill-opacity="1" fill-rule="nonzero"/><path fill="#ef90ac" d="M 207.886719 234.46875 C 207.828125 234.355469 207.773438 234.1875 207.714844 234.074219 C 207.773438 234.128906 207.828125 234.300781 207.941406 234.527344 C 207.941406 234.527344 207.886719 234.527344 207.886719 234.46875 Z M 207.886719 234.46875 " fill-opacity="1" fill-rule="nonzero"/></svg>